<svg enable-background="new 0 0 1445.2 270.9" viewBox="0 0 1445.2 270.9" xmlns="http://www.w3.org/2000/svg"><g fill="none" stroke="#fff" stroke-linecap="round" stroke-miterlimit="10" stroke-width="14.1176" transform="translate(0 348.5)"><path d="m73.2-213.2v.3"/><path d="m101.4-259.7v93.2"/><path d="m129.7-275.6v125.1"/><path d="m157.9-225.2v24.2"/><path d="m186.1-248v69.8"/><path d="m214.4-230v33.9"/><path d="m242.6-276.8v127.5"/><path d="m270.8-231.8v37.5"/><path d="m299.1-218.5v10.9"/><path d="m327.3-213.3v.4"/><path d="m383.8-252.6v79.1"/><path d="m412-280v133.8"/><path d="m440.2-285.3v144.5"/><path d="m468.5-292v157.9"/><path d="m496.7-266.9v107.7"/><path d="m524.9-280.9v135.7"/><path d="m553.2-253.7v81.3"/><path d="m581.4-282.5v138.9"/><path d="m609.7-267.8v109.5"/><path d="m637.9-232.8v39.6"/><path d="m666.1-253.5v80.9"/><path d="m694.4-257.6v89"/><path d="m722.6-219v11.9"/><path d="m779.1-231.2v36.3"/><path d="m807.3-277.1v128.1"/><path d="m835.5-239.1v52"/><path d="m863.8-260.8v95.4"/><path d="m892-225.8v25.5"/><path d="m920.2-213.5v.9"/><path d="m948.5-237.7v49.3"/><path d="m976.7-242.5v58.9"/><path d="m1004.9-233v39.9"/><path d="m1033.2-231.2v36.3"/><path d="m1061.4-240.9v55.6"/><path d="m1089.7-217.2v8.3"/><path d="m1117.9-214.8v3.5"/><path d="m1146.1-225.4v24.6"/><path d="m1174.4-257.8v89.4"/><path d="m1202.6-263.3v100.5"/><path d="m1230.8-272.9v119.7"/><path d="m1259.1-273.3v120.5"/><path d="m1287.3-239.4v52.6"/><path d="m1315.5-271.8v117.5"/><path d="m1343.8-248.7v71.3"/><path d="m1372-230.6v35.1"/><path d="m1400.2-222.1v18"/><path d="m1428.5-215.2v4.3"/></g></svg>