<svg enable-background="new 0 0 1445.2 270.9" viewBox="0 0 1445.2 270.9" xmlns="http://www.w3.org/2000/svg"><g fill="none" stroke="#fff" stroke-linecap="round" stroke-miterlimit="10" stroke-width="17.561" transform="translate(0 348.5)"><path d="m90.4-226.6v27"/><path d="m125.5-287.6v149.1"/><path d="m160.6-224.9v23.6"/><path d="m195.8-251v75.8"/><path d="m230.9-249.2v72.3"/><path d="m266-246.2v66.3"/><path d="m301.1-219.7v13.3"/><path d="m336.3-213.2v.3"/><path d="m371.4-217.3v8.5"/><path d="m406.5-276.2v126.2"/><path d="m441.6-285.9v145.6"/><path d="m476.7-289.6v153.1"/><path d="m511.9-268v109.9"/><path d="m547-265v103.8"/><path d="m582.1-280.3v134.5"/><path d="m617.2-267.5v108.8"/><path d="m652.4-231.6v37"/><path d="m687.5-266.5v107"/><path d="m722.6-231.3v36.4"/><path d="m757.7-213.5v.9"/><path d="m792.8-233.7v41.4"/><path d="m828-262.5v98.8"/><path d="m863.1-257.7v89.2"/><path d="m898.2-235.8v45.4"/><path d="m933.3-214v2"/><path d="m968.4-233.9v41.7"/><path d="m1003.6-251.1v76.1"/><path d="m1038.7-221.6v17.1"/><path d="m1073.8-243.8v61.5"/><path d="m1108.9-217.1v8"/><path d="m1144.1-213.9v1.7"/><path d="m1179.2-253.5v80.9"/><path d="m1214.3-248.5v70.9"/><path d="m1249.4-273.9v121.6"/><path d="m1284.5-265.5v105"/><path d="m1319.7-255.6v85.1"/><path d="m1354.8-254.5v82.9"/><path d="m1389.9-238.3v50.5"/><path d="m1425-221.8v17.5"/></g></svg>