<svg enable-background="new 0 0 1445.2 270.9" viewBox="0 0 1445.2 270.9" xmlns="http://www.w3.org/2000/svg"><g fill="none" stroke="#fff" stroke-linecap="round" stroke-miterlimit="10" stroke-width="11.0769" transform="translate(0 348.5)"><path d="m84-213.2v.6"/><path d="m106.2-259.7v93.7"/><path d="m128.3-289.8v153.8"/><path d="m150.5-240.4v55"/><path d="m172.6-219.2v12.7"/><path d="m194.8-255.9v86.1"/><path d="m216.9-233.7v41.7"/><path d="m239.1-264.4v103.1"/><path d="m261.2-259.2v92.6"/><path d="m283.4-223.6v21.5"/><path d="m305.5-218.1v10.5"/><path d="m327.7-213.3v.9"/><path d="m372-213.2v.6"/><path d="m394.2-263.5v101.1"/><path d="m416.3-275.4v125"/><path d="m438.5-291.7v157.6"/><path d="m460.6-281v136.2"/><path d="m482.8-293.2v160.6"/><path d="m504.9-266.6v107.5"/><path d="m527.1-279.3v132.9"/><path d="m549.2-255.6v85.5"/><path d="m571.4-272.8v119.8"/><path d="m593.5-278.8v131.8"/><path d="m615.7-275.6v125.5"/><path d="m637.8-229.6v33.4"/><path d="m660-236.4v46.9"/><path d="m682.2-267.3v108.8"/><path d="m704.3-258.7v91.7"/><path d="m726.5-221.7v17.7"/><path d="m748.6-213.6v1.4"/><path d="m792.9-236.2v46.6"/><path d="m815.1-286.1v146.5"/><path d="m837.2-230.8v35.8"/><path d="m859.4-263v100.3"/><path d="m881.5-250.8v75.9"/><path d="m903.7-226.9v28"/><path d="m925.8-213.7v1.7"/><path d="m948-233.5v41.2"/><path d="m970.2-225.1v24.4"/><path d="m992.3-249.7v73.7"/><path d="m1014.5-238.5v51.2"/><path d="m1036.6-221.3v16.8"/><path d="m1058.8-250.9v76"/><path d="m1080.9-225.7v25.6"/><path d="m1103.1-217.3v8.9"/><path d="m1125.2-216v6.3"/><path d="m1169.5-247.3v68.9"/><path d="m1191.7-251.7v77.7"/><path d="m1213.8-258.9v91.9"/><path d="m1236-279.1v132.4"/><path d="m1258.2-264.5v103.3"/><path d="m1280.3-270.6v115.4"/><path d="m1302.5-236.2v46.7"/><path d="m1324.6-275.9v126.1"/><path d="m1346.8-251.7v77.6"/><path d="m1368.9-248.4v71"/><path d="m1391.1-227.5v29.2"/><path d="m1413.2-221.8v17.8"/><path d="m1435.4-218.3v10.9"/></g></svg>