<svg enable-background="new 0 0 1445.2 270.9" viewBox="0 0 1445.2 270.9" xmlns="http://www.w3.org/2000/svg"><g fill="none" stroke="#fff" stroke-linecap="round" stroke-miterlimit="10" stroke-width="12.6316" transform="translate(0 348.5)"><path d="m91-225.7v25.2"/><path d="m116.3-292.8v159.5"/><path d="m141.5-250.7v75.3"/><path d="m166.8-221.2v16.3"/><path d="m192.1-259.3v92.5"/><path d="m217.3-223.6v21"/><path d="m242.6-280.2v134.2"/><path d="m267.9-235.8v45.4"/><path d="m293.1-221.4v16.7"/><path d="m318.4-214v2"/><path d="m368.9-213.6v1"/><path d="m394.2-275.2v124.2"/><path d="m419.4-280.7v135.3"/><path d="m444.7-283.9v141.6"/><path d="m470-292.3v158.5"/><path d="m495.2-272.4v118.6"/><path d="m520.5-276.6v127.1"/><path d="m545.8-254.9v83.6"/><path d="m571-281.6v137"/><path d="m596.3-274.7v123.3"/><path d="m621.5-252.3v78.5"/><path d="m646.8-234.8v43.5"/><path d="m672.1-257v87.9"/><path d="m697.3-261.5v96.8"/><path d="m722.6-221.1v16.1"/><path d="m747.9-213.4v.6"/><path d="m773.1-215v3.8"/><path d="m798.4-271.4v116.6"/><path d="m823.6-249.2v72.2"/><path d="m848.9-253.3v80.4"/><path d="m874.2-253.8v81.4"/><path d="m899.4-225.6v25"/><path d="m924.7-213.6v1"/><path d="m950-239.3v52.5"/><path d="m975.2-227.8v29.5"/><path d="m1000.5-255.3v84.4"/><path d="m1025.8-218.2v10.2"/><path d="m1051-248.7v71.2"/><path d="m1076.3-224.4v22.6"/><path d="m1101.5-218.4v10.7"/><path d="m1126.8-214.2v2.3"/><path d="m1152.1-218.8v11.4"/><path d="m1177.3-270.3v114.4"/><path d="m1202.6-246.4v66.6"/><path d="m1227.9-279.2v132.2"/><path d="m1253.1-266.3v106.5"/><path d="m1278.4-258.9v91.7"/><path d="m1303.6-254v81.9"/><path d="m1328.9-266.5v106.8"/><path d="m1354.2-248.9v71.7"/><path d="m1379.4-231.8v37.5"/><path d="m1404.7-221.9v17.6"/><path d="m1430-217.8v9.5"/></g></svg>