<svg enable-background="new 0 0 1445.2 270.9" viewBox="0 0 1445.2 270.9" xmlns="http://www.w3.org/2000/svg"><g fill="none" stroke="#fff" stroke-linecap="round" stroke-miterlimit="10" stroke-width="6.2609" transform="translate(0 348.5)"><path d="m84-213.6v1"/><path d="m96.5-237.8v49.4"/><path d="m109-293v159.8"/><path d="m121.6-292.7v159.3"/><path d="m134.1-270.5v114.9"/><path d="m146.6-230.9v35.6"/><path d="m159.1-224.5v22.8"/><path d="m171.6-218v9.8"/><path d="m184.2-238.8v51.5"/><path d="m196.7-279.8v133.5"/><path d="m209.2-229.9v33.7"/><path d="m221.7-217.3v8.4"/><path d="m234.2-280.6v135"/><path d="m246.8-279.8v133.5"/><path d="m259.3-248.3v70.6"/><path d="m271.8-223.2v20.2"/><path d="m284.3-224.5v22.8"/><path d="m296.9-218.4v10.6"/><path d="m309.4-215v3.8"/><path d="m321.9-213.1v.1"/><path d="m372-214.1v2"/><path d="m384.5-264v101.9"/><path d="m397-286.4v146.6"/><path d="m409.6-273.1v120"/><path d="m422.1-288.3v150.5"/><path d="m434.6-288.8v151.5"/><path d="m447.1-278.9v131.7"/><path d="m459.6-286.4v146.7"/><path d="m472.2-298.2v170.3"/><path d="m484.7-279.3v132.4"/><path d="m497.2-265.5v104.8"/><path d="m509.7-265.6v105.1"/><path d="m522.2-287.7v149.2"/><path d="m534.8-270.7v115.3"/><path d="m547.3-239v51.9"/><path d="m559.8-268.2v110.3"/><path d="m572.3-294.9v163.7"/><path d="m584.9-271.4v116.7"/><path d="m597.4-278v129.9"/><path d="m609.9-274v121.9"/><path d="m622.4-230.6v35.1"/><path d="m634.9-232.1v38.1"/><path d="m647.5-237.5v48.8"/><path d="m660-234.7v43.2"/><path d="m672.5-279.4v132.6"/><path d="m685-275.4v124.7"/><path d="m697.6-247.6v69"/><path d="m710.1-223.5v20.8"/><path d="m722.6-218.7v11.4"/><path d="m735.1-213.7v1.3"/><path d="m772.7-216.9v7.6"/><path d="m785.2-250.1v74"/><path d="m797.7-292.7v159.2"/><path d="m810.2-275.2v124.3"/><path d="m822.8-223.2v20.2"/><path d="m835.3-237.5v48.9"/><path d="m847.8-269v112"/><path d="m860.3-267.6v109.1"/><path d="m872.9-239.9v53.6"/><path d="m885.4-231.3v36.5"/><path d="m897.9-219.8v13.5"/><path d="m910.4-214.1v2"/><path d="m935.5-239.9v53.7"/><path d="m948-238.7v51.3"/><path d="m960.5-217.9v9.7"/><path d="m973-237.8v49.4"/><path d="m985.6-269.2v112.3"/><path d="m998.1-241.3v56.5"/><path d="m1010.6-213.3v.5"/><path d="m1023.1-223v19.9"/><path d="m1035.6-230.3v34.5"/><path d="m1048.2-267v107.9"/><path d="m1060.7-234.2v42.3"/><path d="m1073.2-214.5v2.9"/><path d="m1085.7-216.9v7.6"/><path d="m1098.2-219.9v13.7"/><path d="m1110.8-215.3v4.5"/><path d="m1123.3-213.1v.2"/><path d="m1148.3-224.4v22.7"/><path d="m1160.9-282v137.8"/><path d="m1173.4-258.5v90.9"/><path d="m1185.9-223v19.8"/><path d="m1198.4-269.7v113.3"/><path d="m1210.9-278.3v130.4"/><path d="m1223.5-280.1v134"/><path d="m1236-264.4v102.8"/><path d="m1248.5-268.2v110.3"/><path d="m1261-289.1v152.1"/><path d="m1273.6-228.7v31.2"/><path d="m1286.1-233v39.9"/><path d="m1298.6-275v123.9"/><path d="m1311.1-275.5v124.9"/><path d="m1323.6-257.5v88.8"/><path d="m1336.2-244.7v63.2"/><path d="m1348.7-253.1v80.1"/><path d="m1361.2-240.4v54.6"/><path d="m1373.7-223.3v20.5"/><path d="m1386.2-218.4v10.7"/><path d="m1398.8-225.3v24.5"/><path d="m1411.3-221.3v16.4"/><path d="m1423.8-214.4v2.6"/></g></svg>