<svg enable-background="new 0 0 1445.2 270.9" viewBox="0 0 1445.2 270.9" xmlns="http://www.w3.org/2000/svg"><g fill="none" stroke="#fff" stroke-linecap="round" stroke-miterlimit="10" stroke-width="4.7059" transform="translate(0 348.5)"><path d="m82.6-213.4v.7"/><path d="m92-224.8v23.4"/><path d="m101.4-250.5v74.9"/><path d="m110.8-303.7v181.3"/><path d="m120.2-292.9v159.7"/><path d="m129.7-282.5v138.9"/><path d="m139.1-251.5v76.9"/><path d="m148.5-231.9v37.6"/><path d="m157.9-227.1v28.1"/><path d="m167.3-216.5v6.9"/><path d="m176.7-222v17.8"/><path d="m186.1-242.8v59.4"/><path d="m195.5-279.2v132.3"/><path d="m204.9-249.4v72.7"/><path d="m214.4-224.2v22.3"/><path d="m223.8-216.5v6.8"/><path d="m233.2-275.1v124.1"/><path d="m242.6-293.3v160.5"/><path d="m252-262v97.8"/><path d="m261.4-247.8v69.5"/><path d="m270.8-222.5v19"/><path d="m280.2-225.1v24"/><path d="m289.7-222.3v18.4"/><path d="m299.1-218.1v10.1"/><path d="m308.5-215.1v4.1"/><path d="m317.9-213.6v1.1"/><path d="m374.4-214.4v2.7"/><path d="m383.8-255.7v85.3"/><path d="m393.2-287.8v149.4"/><path d="m402.6-283.9v141.6"/><path d="m412-270.6v115"/><path d="m421.4-285.5v144.8"/><path d="m430.8-296.8v167.5"/><path d="m440.2-280.9v135.6"/><path d="m449.7-278.3v130.4"/><path d="m459.1-284.2v142.2"/><path d="m468.5-298.4v170.7"/><path d="m477.9-293.5v160.8"/><path d="m487.3-275.8v125.5"/><path d="m496.7-267.4v108.7"/><path d="m506.1-257.5v88.8"/><path d="m515.5-274.8v123.4"/><path d="m524.9-292v157.8"/><path d="m534.4-276v125.9"/><path d="m543.8-245.3v64.6"/><path d="m553.2-241v55.9"/><path d="m562.6-274.9v123.6"/><path d="m572-297.1v168.1"/><path d="m581.4-288.3v150.4"/><path d="m590.8-262.2v98.2"/><path d="m600.2-278.2v130.3"/><path d="m609.7-279.3v132.6"/><path d="m619.1-245.8v65.5"/><path d="m628.5-221.6v17"/><path d="m637.9-235.6v45"/><path d="m647.3-241.4v56.6"/><path d="m656.7-229.7v33.3"/><path d="m666.1-251.5v76.9"/><path d="m675.5-279.4v132.7"/><path d="m684.9-278v129.8"/><path d="m694.4-267.8v109.4"/><path d="m703.8-226.9v27.7"/><path d="m713.2-222.6v19.1"/><path d="m722.6-219.9v13.6"/><path d="m732-214.6v3.1"/><path d="m769.7-213.3v.4"/><path d="m779.1-221.3v16.4"/><path d="m788.5-259.1v92.1"/><path d="m797.9-290.7v155.2"/><path d="m807.3-288.2v150.3"/><path d="m816.7-252.5v78.8"/><path d="m826.1-223.3v20.6"/><path d="m835.5-230v33.8"/><path d="m844.9-263.9v101.7"/><path d="m854.4-272.5v118.9"/><path d="m863.8-265.9v105.6"/><path d="m873.2-243.9v61.7"/><path d="m882.6-230.9v35.6"/><path d="m892-227.9v29.6"/><path d="m901.4-218.7v11.2"/><path d="m910.8-214.4v2.7"/><path d="m939.1-248.8v71.5"/><path d="m948.5-240v53.8"/><path d="m957.9-224.4v22.6"/><path d="m967.3-222.7v19.3"/><path d="m976.7-238.8v51.5"/><path d="m986.1-266.1v106"/><path d="m995.5-260.7v95.3"/><path d="m1004.9-225v24"/><path d="m1014.4-213.3v.4"/><path d="m1023.8-220.1v14"/><path d="m1033.2-231.1v36.2"/><path d="m1042.6-242.5v58.8"/><path d="m1052-266.8v107.4"/><path d="m1061.4-239.9v53.6"/><path d="m1070.8-216v5.9"/><path d="m1080.2-213.8v1.5"/><path d="m1089.7-217.8v9.5"/><path d="m1099.1-220.1v14"/><path d="m1108.5-218v9.8"/><path d="m1117.9-213.4v.6"/><path d="m1146.1-213.4v.6"/><path d="m1155.5-249.7v73.2"/><path d="m1164.9-283.2v140.3"/><path d="m1174.4-268.8v111.5"/><path d="m1183.8-221.2v16.3"/><path d="m1193.2-231.3v36.5"/><path d="m1202.6-280.3v134.5"/><path d="m1212-278.3v130.4"/><path d="m1221.4-279.5v132.9"/><path d="m1230.8-279.9v133.7"/><path d="m1240.2-259.3v92.5"/><path d="m1249.7-265.1v104"/><path d="m1259.1-289.9v153.7"/><path d="m1268.5-265v103.9"/><path d="m1277.9-228v29.9"/><path d="m1287.3-231.9v37.7"/><path d="m1296.7-258.2v90.3"/><path d="m1306.1-280v133.9"/><path d="m1315.5-274.6v123"/><path d="m1324.9-260.8v95.6"/><path d="m1334.4-245.9v65.6"/><path d="m1343.8-244.7v63.3"/><path d="m1353.2-255.6v85.1"/><path d="m1362.6-240.6v55"/><path d="m1372-230.3v34.4"/><path d="m1381.4-221.1v16"/><path d="m1390.8-217.6v9"/><path d="m1400.2-225.5v24.9"/><path d="m1409.7-223.2v20.3"/><path d="m1419.1-218.6v11.1"/><path d="m1428.5-214v1.8"/></g></svg>