<svg enable-background="new 0 0 1445.2 270.9" viewBox="0 0 1445.2 270.9" xmlns="http://www.w3.org/2000/svg"><g fill="none" stroke="#fff" stroke-linecap="round" stroke-miterlimit="10" stroke-width="15.6522" transform="translate(0 348.5)"><path d="m80.9-216.7v7.3"/><path d="m112.2-283.3v140.6"/><path d="m143.5-246.3v66.5"/><path d="m174.8-226.7v27.3"/><path d="m206.1-247.5v68.8"/><path d="m237.4-267.4v108.7"/><path d="m268.7-233.6v41.1"/><path d="m300-218.1v10.1"/><path d="m362.6-213.5v.8"/><path d="m393.9-276.3v126.4"/><path d="m425.2-284v141.8"/><path d="m456.5-286.4v146.6"/><path d="m487.8-277v127.8"/><path d="m519.1-278.6v131.1"/><path d="m550.4-253.8v81.5"/><path d="m581.7-282v137.9"/><path d="m613-257.6v89"/><path d="m644.3-234.2v42.2"/><path d="m675.6-269.4v112.7"/><path d="m706.9-232.4v38.7"/><path d="m738.2-214.2v2.2"/><path d="m769.6-216.6v7"/><path d="m800.9-282.6v139"/><path d="m832.2-237.4v48.7"/><path d="m863.5-257.5v88.8"/><path d="m894.8-223.5v20.8"/><path d="m926.1-223.8v21.5"/><path d="m957.4-229.6v33.1"/><path d="m988.7-252.4v78.6"/><path d="m1020-220.7v15.3"/><path d="m1051.3-246.5v66.8"/><path d="m1082.6-216.7v7.2"/><path d="m1113.9-215.3v4.4"/><path d="m1145.2-230.7v35.2"/><path d="m1176.5-249.8v73.4"/><path d="m1207.8-275.2v124.3"/><path d="m1239.1-269.1v112"/><path d="m1270.4-253.1v80"/><path d="m1301.7-267.5v108.8"/><path d="m1333-251v75.9"/><path d="m1364.3-236.6v47"/><path d="m1395.6-222v17.8"/><path d="m1426.9-215v3.9"/></g></svg>