<svg enable-background="new 0 0 1445.2 270.9" viewBox="0 0 1445.2 270.9" xmlns="http://www.w3.org/2000/svg"><g fill="none" stroke="#fff" stroke-linecap="round" stroke-miterlimit="10" stroke-width="3.1304" transform="translate(0 348.5)"><path d="m87.1-214.1v2"/><path d="m93.4-230.1v34.1"/><path d="m99.6-245.4v64.7"/><path d="m105.9-282.2v138.3"/><path d="m112.2-303.7v181.3"/><path d="m118.4-293.3v160.4"/><path d="m124.7-292.1v158.1"/><path d="m130.9-277.7v129.3"/><path d="m137.2-263.3v100.5"/><path d="m143.5-227.8v29.6"/><path d="m149.7-233.9v41.6"/><path d="m156-228.8v31.5"/><path d="m162.2-220.1v14.1"/><path d="m168.5-216.5v6.9"/><path d="m174.8-219.5v12.8"/><path d="m181-226.9v27.7"/><path d="m187.3-250.7v75.2"/><path d="m193.6-278v129.9"/><path d="m199.8-281.6v137"/><path d="m206.1-233.3v40.5"/><path d="m212.3-226.5v26.8"/><path d="m218.6-218.1v10"/><path d="m224.9-216.5v6.8"/><path d="m231.1-264.2v102.3"/><path d="m237.4-296.9v167.7"/><path d="m243.6-291.5v157"/><path d="m249.9-268v109.9"/><path d="m256.2-249.9v73.6"/><path d="m262.4-246.8v67.5"/><path d="m268.7-222.5v19"/><path d="m274.9-223.8v21.5"/><path d="m281.2-225.1v24"/><path d="m287.5-223.9v21.7"/><path d="m293.7-219v12"/><path d="m300-217.7v9.2"/><path d="m306.2-215.4v4.7"/><path d="m312.5-214.5v2.9"/><path d="m318.8-213.1v.2"/><path d="m375.1-215.1v4"/><path d="m381.4-255.7v85.3"/><path d="m387.6-272.3v118.4"/><path d="m393.9-287.2v148.3"/><path d="m400.2-285.6v145"/><path d="m406.4-280.5v135"/><path d="m412.7-265.6v105"/><path d="m418.9-280.5v134.9"/><path d="m425.2-296.1v166.1"/><path d="m431.5-296.8v167.5"/><path d="m437.7-280.9v135.6"/><path d="m444-279.2v132.3"/><path d="m450.2-278.7v131.2"/><path d="m456.5-279.7v133.3"/><path d="m462.8-293.1v160.1"/><path d="m469-301.1v176"/><path d="m475.3-295.4v164.6"/><path d="m481.6-283.9v141.6"/><path d="m487.8-274.7v123.2"/><path d="m494.1-271.3v116.4"/><path d="m500.3-259.6v93.1"/><path d="m506.6-256.4v86.7"/><path d="m512.9-274.8v123.4"/><path d="m519.1-283.4v140.6"/><path d="m525.4-292v157.8"/><path d="m531.6-286.6v147.1"/><path d="m537.9-254.8v83.4"/><path d="m544.2-240.6v55.1"/><path d="m550.4-237.4v48.6"/><path d="m556.7-248.3v70.4"/><path d="m562.9-288.2v150.2"/><path d="m569.2-294.9v163.6"/><path d="m575.5-294.9v163.7"/><path d="m581.7-288.3v150.4"/><path d="m588-254.6v83.1"/><path d="m594.2-277.3v128.5"/><path d="m600.5-278.7v131.3"/><path d="m606.8-279.5v132.9"/><path d="m613-268.5v110.8"/><path d="m619.3-239.7v53.3"/><path d="m625.6-221.5v16.8"/><path d="m631.8-221.8v17.5"/><path d="m638.1-242.4v58.7"/><path d="m644.3-241.4v56.6"/><path d="m650.6-233.6v41"/><path d="m656.9-231.7v37.2"/><path d="m663.1-237.7v49.2"/><path d="m669.4-279.2v132.3"/><path d="m675.6-279.5v132.8"/><path d="m681.9-278.3v130.5"/><path d="m688.2-272.5v118.8"/><path d="m694.4-267.8v109.4"/><path d="m700.7-227.4v28.6"/><path d="m706.9-226.1v26"/><path d="m713.2-220.9v15.6"/><path d="m719.5-220.1v14.1"/><path d="m725.7-217.4v8.6"/><path d="m732-214.3v2.4"/><path d="m738.2-213.1v.1"/><path d="m769.6-213.3v.6"/><path d="m775.8-220.4v14.7"/><path d="m782.1-223v19.8"/><path d="m788.3-277.2v128.2"/><path d="m794.6-287.3v148.5"/><path d="m800.9-298v169.9"/><path d="m807.1-283v139.9"/><path d="m813.4-267.4v108.7"/><path d="m819.6-222.6v19.1"/><path d="m825.9-223.7v21.3"/><path d="m832.2-228.4v30.7"/><path d="m838.4-246.6v67.1"/><path d="m844.7-265.8v105.5"/><path d="m850.9-272.3v118.4"/><path d="m857.2-273v119.9"/><path d="m863.5-262.3v98.4"/><path d="m869.7-252v77.8"/><path d="m876-227.8v29.4"/><path d="m882.2-232.4v38.7"/><path d="m888.5-230.2v34.2"/><path d="m894.8-223.3v20.4"/><path d="m901-216.4v6.7"/><path d="m907.3-215.1v4"/><path d="m932.3-230.7v35.4"/><path d="m938.6-249.1v72"/><path d="m944.9-242.4v58.7"/><path d="m951.1-235.1v44"/><path d="m957.4-219.1v12"/><path d="m963.6-216.8v7.4"/><path d="m969.9-234.7v43.2"/><path d="m976.2-240.9v55.6"/><path d="m982.4-259.8v93.4"/><path d="m988.7-278.7v131.2"/><path d="m994.9-251.8v77.4"/><path d="m1001.2-230.9v35.6"/><path d="m1007.5-213.4v.7"/><path d="m1013.7-213.2v.3"/><path d="m1020-218.4v10.6"/><path d="m1026.2-227.7v29.2"/><path d="m1032.5-230.8v35.5"/><path d="m1038.8-229.8v33.5"/><path d="m1045-267.9v109.6"/><path d="m1051.3-266.2v106.3"/><path d="m1057.6-251.1v76"/><path d="m1063.8-217.4v8.6"/><path d="m1070.1-215.4v4.6"/><path d="m1076.3-213.7v1.2"/><path d="m1082.6-214v1.9"/><path d="m1088.9-219.7v13.3"/><path d="m1095.1-220.5v14.8"/><path d="m1101.4-219.3v12.5"/><path d="m1107.6-217.3v8.4"/><path d="m1113.9-213.4v.6"/><path d="m1120.2-213.2v.3"/><path d="m1145.2-213.5v.9"/><path d="m1151.5-235.4v44.6"/><path d="m1157.7-278.3v130.4"/><path d="m1164-285.7v145.3"/><path d="m1170.2-274.9v123.7"/><path d="m1176.5-242.2v58.2"/><path d="m1182.8-218v9.9"/><path d="m1189-228v29.8"/><path d="m1195.3-259.1v92.2"/><path d="m1201.6-280.3v134.5"/><path d="m1207.8-278.3v130.5"/><path d="m1214.1-278.2v130.4"/><path d="m1220.3-280.1v134.1"/><path d="m1226.6-280v133.8"/><path d="m1232.9-274.4v122.7"/><path d="m1239.1-254.5v82.8"/><path d="m1245.4-258.8v91.4"/><path d="m1251.6-277.6v129.1"/><path d="m1257.9-296v165.9"/><path d="m1264.2-282.3v138.4"/><path d="m1270.4-230.5v35"/><path d="m1276.7-226.8v27.4"/><path d="m1282.9-229.7v33.2"/><path d="m1289.2-236.4v46.6"/><path d="m1295.5-269.2v112.2"/><path d="m1301.7-280.9v135.6"/><path d="m1308-278.2v130.4"/><path d="m1314.2-272.8v119.4"/><path d="m1320.5-263.8v101.5"/><path d="m1326.8-251.1v76.1"/><path d="m1333-245.1v64.1"/><path d="m1339.3-244.2v62.4"/><path d="m1345.6-250.6v75.1"/><path d="m1351.8-255.6v85.1"/><path d="m1358.1-241v55.8"/><path d="m1364.3-239.7v53.3"/><path d="m1370.6-225.5v24.9"/><path d="m1376.9-221.1v16"/><path d="m1383.1-219.3v12.5"/><path d="m1389.4-217.6v9"/><path d="m1395.6-223.8v21.5"/><path d="m1401.9-226.8v27.5"/><path d="m1408.2-222.4v18.7"/><path d="m1414.4-220.1v14.1"/><path d="m1420.7-215.6v5"/><path d="m1426.9-213.2v.3"/></g></svg>