<svg enable-background="new 0 0 1445.2 270.9" viewBox="0 0 1445.2 270.9" xmlns="http://www.w3.org/2000/svg"><g fill="none" stroke="#fff" stroke-linecap="round" stroke-miterlimit="10" stroke-width="7.8261" transform="translate(0 348.5)"><path d="m92.5-220.1v14.5"/><path d="m108.2-271.6v117.5"/><path d="m123.8-294.7v163.7"/><path d="m139.5-261.8v97.9"/><path d="m155.2-230.5v35.2"/><path d="m170.8-218.4v11"/><path d="m186.5-234.8v43.7"/><path d="m202.1-270.3v114.9"/><path d="m217.8-224.3v22.8"/><path d="m233.4-251.5v77.2"/><path d="m249.1-283v140.3"/><path d="m264.7-243v60.2"/><path d="m280.4-223.9v22"/><path d="m296-220.8v15.8"/><path d="m311.7-215.1v4.3"/><path d="m327.3-212.9v.1"/><path d="m374.3-213.7v1.6"/><path d="m389.9-268.8v111.8"/><path d="m405.6-283.4v141"/><path d="m421.2-277.3v128.9"/><path d="m436.9-290.3v154.7"/><path d="m452.5-278.9v132.1"/><path d="m468.2-293.4v161.1"/><path d="m483.8-287.1v148.5"/><path d="m499.5-266.4v107.1"/><path d="m515.2-267.3v108.7"/><path d="m530.8-289.7v153.5"/><path d="m546.5-243.3v60.8"/><path d="m562.1-264v102.3"/><path d="m577.8-293.4v161"/><path d="m593.4-270.2v114.7"/><path d="m609.1-278.9v132"/><path d="m624.7-235.9v46"/><path d="m640.4-233.8v41.8"/><path d="m656-234.2v42.6"/><path d="m671.7-262.5v99.2"/><path d="m687.3-276v126.3"/><path d="m703-243.1v60.4"/><path d="m718.6-221.4v17.1"/><path d="m734.3-215.1v4.5"/><path d="m765.6-212.9v.1"/><path d="m781.2-219.9v13.9"/><path d="m796.9-285.1v144.4"/><path d="m812.5-279.7v133.7"/><path d="m828.2-223.1v20.4"/><path d="m843.8-251.4v77.1"/><path d="m859.5-270.4v115"/><path d="m875.2-244.2v62.6"/><path d="m890.8-229.5v33.2"/><path d="m906.5-217.1v8.3"/><path d="m937.8-234.4v43"/><path d="m953.4-234.6v43.5"/><path d="m969.1-224.2v22.6"/><path d="m984.7-255.8v85.9"/><path d="m1000.4-248.6v71.4"/><path d="m1016-213.1v.5"/><path d="m1031.7-227.9v30"/><path d="m1047.3-252.1v78.5"/><path d="m1063-240.5v55.1"/><path d="m1078.6-214.2v2.7"/><path d="m1094.3-218.7v11.6"/><path d="m1109.9-217.1v8.5"/><path d="m1125.6-213v.3"/><path d="m1141.2-213v.2"/><path d="m1156.9-248v70.2"/><path d="m1172.5-275.4v125"/><path d="m1188.2-223.8v21.7"/><path d="m1203.8-271.3v116.8"/><path d="m1219.5-278.8v131.9"/><path d="m1235.2-275.4v125"/><path d="m1250.8-262.4v98.9"/><path d="m1266.5-277.2v128.7"/><path d="m1282.1-228.5v31.2"/><path d="m1297.8-258.2v90.6"/><path d="m1313.4-276.4v127"/><path d="m1329.1-255.3v84.8"/><path d="m1344.7-246.3v66.9"/><path d="m1360.4-246.4v67"/><path d="m1376-226.4v27"/><path d="m1391.7-218.3v10.9"/><path d="m1407.3-225.3v24.8"/><path d="m1423-216.8v7.7"/></g></svg>