<svg enable-background="new 0 0 1445.2 270.9" viewBox="0 0 1445.2 270.9" xmlns="http://www.w3.org/2000/svg"><g fill="none" stroke="#fff" stroke-linecap="round" stroke-miterlimit="10" stroke-width="18.9474" transform="translate(0 348.5)"><path d="m97.3-248.1v70.1"/><path d="m135.2-264.7v103.3"/><path d="m173.1-227.1v28"/><path d="m211-242.3v58.5"/><path d="m248.9-269.6v113"/><path d="m286.8-222v17.9"/><path d="m324.7-213.7v1.3"/><path d="m362.6-213.4v.7"/><path d="m400.5-274.5v122.8"/><path d="m438.4-285.4v144.6"/><path d="m476.3-288v149.8"/><path d="m514.2-272.9v119.7"/><path d="m552.1-259.3v92.5"/><path d="m590-281.4v136.8"/><path d="m627.9-245.6v65"/><path d="m665.8-250.5v74.9"/><path d="m703.6-248.8v71.5"/><path d="m741.5-215.2v4.2"/><path d="m779.4-226.7v27.2"/><path d="m817.3-263.7v101.2"/><path d="m855.2-258.1v90"/><path d="m893.1-230.3v34.5"/><path d="m931-222.4v18.6"/><path d="m968.9-231.5v36.8"/><path d="m1006.8-241.3v56.4"/><path d="m1044.7-240.1v54.1"/><path d="m1082.6-221.9v17.6"/><path d="m1120.5-216.1v6.1"/><path d="m1158.4-239.8v53.5"/><path d="m1196.3-250.4v74.7"/><path d="m1234.2-274.3v122.4"/><path d="m1272.1-262v97.9"/><path d="m1310-261.2v96.2"/><path d="m1347.9-251.8v77.4"/><path d="m1385.8-227.4v28.6"/><path d="m1423.6-220.3v14.5"/></g></svg>